<svg xmlns="http://www.w3.org/2000/svg" style="display:none">
  <symbol id="brand.github" viewBox="0 0 24 24" fill="currentColor"><path d="M12 .297c-6.63 0-12 5.373-12 12 0 5.303 3.438 9.8 8.205 11.385.6.113.82-.258.82-.577 0-.285-.01-1.04-.015-2.04-3.338.724-4.042-1.61-4.042-1.61C4.422 18.07 3.633 17.7 3.633 17.7c-1.087-.744.084-.729.084-.729 1.205.084 1.838 1.236 1.838 1.236 1.07 1.835 2.809 1.305 3.495.998.108-.776.417-1.305.76-1.605-2.665-.3-5.466-1.332-5.466-5.93 0-1.31.465-2.38 1.235-3.22-.135-.303-.54-1.523.105-3.176 0 0 1.005-.322 3.3 1.23.96-.267 1.98-.399 3-.405 1.02.006 2.04.138 3 .405 2.28-1.552 3.285-1.23 3.285-1.23.645 1.653.24 2.873.12 3.176.765.84 1.23 1.91 1.23 3.22 0 4.61-2.805 5.625-5.475 5.92.42.36.81 1.096.81 2.22 0 1.606-.015 2.896-.015 3.286 0 .315.21.69.825.57C20.565 22.092 24 17.592 24 12.297c0-6.627-5.373-12-12-12"/></symbol>
  <symbol id="lucide.ampersand" viewBox="0 0 24 24" fill="none" stroke="currentColor" stroke-linecap="round" stroke-linejoin="round" stroke-width="2"><path d="M16 12h3m-1.5 0a8 8 0 0 1-8 8A4.5 4.5 0 0 1 5 15.5c0-6 8-4 8-8.5a3 3 0 1 0-6 0c0 3 2.5 8.5 12 13"/></symbol>
  <symbol id="lucide.archive" viewBox="0 0 24 24" fill="none" stroke="currentColor" stroke-linecap="round" stroke-linejoin="round" stroke-width="2"><rect width="20" height="5" x="2" y="3" rx="1"/><path d="M4 8v11a2 2 0 0 0 2 2h12a2 2 0 0 0 2-2V8m-10 4h4"/></symbol>
  <symbol id="lucide.archive-restore" viewBox="0 0 24 24" fill="none" stroke="currentColor" stroke-linecap="round" stroke-linejoin="round" stroke-width="2"><rect width="20" height="5" x="2" y="3" rx="1"/><path d="M4 8v11a2 2 0 0 0 2 2h2M20 8v11a2 2 0 0 1-2 2h-2m-7-6 3-3 3 3m-3-3v9"/></symbol>
  <symbol id="lucide.arrow-down-a-z" viewBox="0 0 24 24" fill="none" stroke="currentColor" stroke-linecap="round" stroke-linejoin="round" stroke-width="2"><path d="m3 16 4 4 4-4m-4 4V4m13 4h-5m0 2V6.5a2.5 2.5 0 0 1 5 0V10m-5 4h5l-5 6h5"/></symbol>
  <symbol id="lucide.arrow-down-narrow-wide" viewBox="0 0 24 24" fill="none" stroke="currentColor" stroke-linecap="round" stroke-linejoin="round" stroke-width="2"><path d="m3 16 4 4 4-4m-4 4V4m4 0h4m-4 4h7m-7 4h10"/></symbol>
  <symbol id="lucide.arrow-left" viewBox="0 0 24 24" fill="none" stroke="currentColor" stroke-linecap="round" stroke-linejoin="round" stroke-width="2"><path d="m12 19-7-7 7-7m7 7H5"/></symbol>
  <symbol id="lucide.arrow-right" viewBox="0 0 24 24" fill="none" stroke="currentColor" stroke-linecap="round" stroke-linejoin="round" stroke-width="2"><path d="M5 12h14m-7-7 7 7-7 7"/></symbol>
  <symbol id="lucide.arrow-up-down" viewBox="0 0 24 24" fill="none" stroke="currentColor" stroke-linecap="round" stroke-linejoin="round" stroke-width="2"><path d="m21 16-4 4-4-4m4 4V4M3 8l4-4 4 4M7 4v16"/></symbol>
  <symbol id="lucide.arrow-up-narrow-wide" viewBox="0 0 24 24" fill="none" stroke="currentColor" stroke-linecap="round" stroke-linejoin="round" stroke-width="2"><path d="m3 8 4-4 4 4M7 4v16m4-8h4m-4 4h7m-7 4h10"/></symbol>
  <symbol id="lucide.badge-info" viewBox="0 0 24 24" fill="none" stroke="currentColor" stroke-linecap="round" stroke-linejoin="round" stroke-width="2"><path d="M3.85 8.62a4 4 0 0 1 4.78-4.77 4 4 0 0 1 6.74 0 4 4 0 0 1 4.78 4.78 4 4 0 0 1 0 6.74 4 4 0 0 1-4.77 4.78 4 4 0 0 1-6.75 0 4 4 0 0 1-4.78-4.77 4 4 0 0 1 0-6.76M12 16v-4m0-4h.01"/></symbol>
  <symbol id="lucide.book-open" viewBox="0 0 24 24" fill="none" stroke="currentColor" stroke-linecap="round" stroke-linejoin="round" stroke-width="2"><path d="M12 7v14m-9-3a1 1 0 0 1-1-1V4a1 1 0 0 1 1-1h5a4 4 0 0 1 4 4 4 4 0 0 1 4-4h5a1 1 0 0 1 1 1v13a1 1 0 0 1-1 1h-6a3 3 0 0 0-3 3 3 3 0 0 0-3-3z"/></symbol>
  <symbol id="lucide.bug" viewBox="0 0 24 24" fill="none" stroke="currentColor" stroke-linecap="round" stroke-linejoin="round" stroke-width="2"><path d="M12 20v-9m2-4a4 4 0 0 1 4 4v3a6 6 0 0 1-12 0v-3a4 4 0 0 1 4-4zm.12-3.12L16 2"/><path d="M21 21a4 4 0 0 0-3.81-4M21 5a4 4 0 0 1-3.55 3.97M22 13h-4M3 21a4 4 0 0 1 3.81-4M3 5a4 4 0 0 0 3.55 3.97M6 13H2M8 2l1.88 1.88M9 7.13V6a3 3 0 1 1 6 0v1.13"/></symbol>
  <symbol id="lucide.calculator" viewBox="0 0 24 24" fill="none" stroke="currentColor" stroke-linecap="round" stroke-linejoin="round" stroke-width="2"><rect width="16" height="20" x="4" y="2" rx="2"/><path d="M8 6h8m0 8v4m0-8h.01M12 10h.01M8 10h.01M12 14h.01M8 14h.01M12 18h.01M8 18h.01"/></symbol>
  <symbol id="lucide.calendar" viewBox="0 0 24 24" fill="none" stroke="currentColor" stroke-linecap="round" stroke-linejoin="round" stroke-width="2"><path d="M8 2v4m8-4v4"/><rect width="18" height="18" x="3" y="4" rx="2"/><path d="M3 10h18"/></symbol>
  <symbol id="lucide.camera" viewBox="0 0 24 24" fill="none" stroke="currentColor" stroke-linecap="round" stroke-linejoin="round" stroke-width="2"><path d="M13.997 4a2 2 0 0 1 1.76 1.05l.486.9A2 2 0 0 0 18.003 7H20a2 2 0 0 1 2 2v9a2 2 0 0 1-2 2H4a2 2 0 0 1-2-2V9a2 2 0 0 1 2-2h1.997a2 2 0 0 0 1.759-1.048l.489-.904A2 2 0 0 1 10.004 4z"/><circle cx="12" cy="13" r="3"/></symbol>
  <symbol id="lucide.check" viewBox="0 0 24 24" fill="none" stroke="currentColor" stroke-linecap="round" stroke-linejoin="round" stroke-width="2"><path d="M20 6 9 17l-5-5"/></symbol>
  <symbol id="lucide.chevron-down" viewBox="0 0 24 24" fill="none" stroke="currentColor" stroke-linecap="round" stroke-linejoin="round" stroke-width="2"><path d="m6 9 6 6 6-6"/></symbol>
  <symbol id="lucide.chevron-left" viewBox="0 0 24 24" fill="none" stroke="currentColor" stroke-linecap="round" stroke-linejoin="round" stroke-width="2"><path d="m15 18-6-6 6-6"/></symbol>
  <symbol id="lucide.chevron-right" viewBox="0 0 24 24" fill="none" stroke="currentColor" stroke-linecap="round" stroke-linejoin="round" stroke-width="2"><path d="m9 18 6-6-6-6"/></symbol>
  <symbol id="lucide.circle" viewBox="0 0 24 24" fill="none" stroke="currentColor" stroke-linecap="round" stroke-linejoin="round" stroke-width="2"><circle cx="12" cy="12" r="10"/></symbol>
  <symbol id="lucide.circle-alert" viewBox="0 0 24 24" fill="none" stroke="currentColor" stroke-linecap="round" stroke-linejoin="round" stroke-width="2"><circle cx="12" cy="12" r="10"/><path d="M12 8v4m0 4h.01"/></symbol>
  <symbol id="lucide.circle-arrow-down" viewBox="0 0 24 24" fill="none" stroke="currentColor" stroke-linecap="round" stroke-linejoin="round" stroke-width="2"><circle cx="12" cy="12" r="10"/><path d="M12 8v8m-4-4 4 4 4-4"/></symbol>
  <symbol id="lucide.circle-check" viewBox="0 0 24 24" fill="none" stroke="currentColor" stroke-linecap="round" stroke-linejoin="round" stroke-width="2"><circle cx="12" cy="12" r="10"/><path d="m9 12 2 2 4-4"/></symbol>
  <symbol id="lucide.circle-help" viewBox="0 0 24 24" fill="none" stroke="currentColor" stroke-linecap="round" stroke-linejoin="round" stroke-width="2"><circle cx="12" cy="12" r="10"/><path d="M9.09 9a3 3 0 0 1 5.83 1c0 2-3 3-3 3m.08 4h.01"/></symbol>
  <symbol id="lucide.copy" viewBox="0 0 24 24" fill="none" stroke="currentColor" stroke-linecap="round" stroke-linejoin="round" stroke-width="2"><rect width="14" height="14" x="8" y="8" rx="2" ry="2"/><path d="M4 16c-1.1 0-2-.9-2-2V4c0-1.1.9-2 2-2h10c1.1 0 2 .9 2 2"/></symbol>
  <symbol id="lucide.delete" viewBox="0 0 24 24" fill="none" stroke="currentColor" stroke-linecap="round" stroke-linejoin="round" stroke-width="2"><path d="M10 5a2 2 0 0 0-1.344.519l-6.328 5.74a1 1 0 0 0 0 1.481l6.328 5.741A2 2 0 0 0 10 19h10a2 2 0 0 0 2-2V7a2 2 0 0 0-2-2zm2 4 6 6m0-6-6 6"/></symbol>
  <symbol id="lucide.ellipsis-vertical" viewBox="0 0 24 24" fill="none" stroke="currentColor" stroke-linecap="round" stroke-linejoin="round" stroke-width="2"><circle cx="12" cy="12" r="1"/><circle cx="12" cy="5" r="1"/><circle cx="12" cy="19" r="1"/></symbol>
  <symbol id="lucide.external-link" viewBox="0 0 24 24" fill="none" stroke="currentColor" stroke-linecap="round" stroke-linejoin="round" stroke-width="2"><path d="M15 3h6v6m-11 5L21 3m-3 10v6a2 2 0 0 1-2 2H5a2 2 0 0 1-2-2V8a2 2 0 0 1 2-2h6"/></symbol>
  <symbol id="lucide.folder-archive" viewBox="0 0 24 24" fill="none" stroke="currentColor" stroke-linecap="round" stroke-linejoin="round" stroke-width="2"><circle cx="15" cy="19" r="2"/><path d="M20.9 19.8A2 2 0 0 0 22 18V8a2 2 0 0 0-2-2h-7.9a2 2 0 0 1-1.69-.9L9.6 3.9A2 2 0 0 0 7.93 3H4a2 2 0 0 0-2 2v13a2 2 0 0 0 2 2h5.1m5.9-9v-1m0 7v-2"/></symbol>
  <symbol id="lucide.image" viewBox="0 0 24 24" fill="none" stroke="currentColor" stroke-linecap="round" stroke-linejoin="round" stroke-width="2"><rect width="18" height="18" x="3" y="3" rx="2" ry="2"/><circle cx="9" cy="9" r="2"/><path d="m21 15-3.086-3.086a2 2 0 0 0-2.828 0L6 21"/></symbol>
  <symbol id="lucide.image-up" viewBox="0 0 24 24" fill="none" stroke="currentColor" stroke-linecap="round" stroke-linejoin="round" stroke-width="2"><path d="M10.3 21H5a2 2 0 0 1-2-2V5a2 2 0 0 1 2-2h14a2 2 0 0 1 2 2v10l-3.1-3.1a2 2 0 0 0-2.814.014L6 21"/><path d="m14 19.5 3-3 3 3M17 22v-5.5"/><circle cx="9" cy="9" r="2"/></symbol>
  <symbol id="lucide.images" viewBox="0 0 24 24" fill="none" stroke="currentColor" stroke-linecap="round" stroke-linejoin="round" stroke-width="2"><path d="m22 11-1.296-1.296a2.4 2.4 0 0 0-3.408 0L11 16"/><path d="M4 8a2 2 0 0 0-2 2v10a2 2 0 0 0 2 2h10a2 2 0 0 0 2-2"/><circle cx="13" cy="7" r="1" fill="currentColor"/><rect width="14" height="14" x="8" y="2" rx="2"/></symbol>
  <symbol id="lucide.import" viewBox="0 0 24 24" fill="none" stroke="currentColor" stroke-linecap="round" stroke-linejoin="round" stroke-width="2"><path d="M12 3v12m-4-4 4 4 4-4"/><path d="M8 5H4a2 2 0 0 0-2 2v10a2 2 0 0 0 2 2h16a2 2 0 0 0 2-2V7a2 2 0 0 0-2-2h-4"/></symbol>
  <symbol id="lucide.info" viewBox="0 0 24 24" fill="none" stroke="currentColor" stroke-linecap="round" stroke-linejoin="round" stroke-width="2"><circle cx="12" cy="12" r="10"/><path d="M12 16v-4m0-4h.01"/></symbol>
  <symbol id="lucide.lightbulb" viewBox="0 0 24 24" fill="none" stroke="currentColor" stroke-linecap="round" stroke-linejoin="round" stroke-width="2"><path d="M15 14c.2-1 .7-1.7 1.5-2.5 1-.9 1.5-2.2 1.5-3.5A6 6 0 0 0 6 8c0 1 .2 2.2 1.5 3.5.7.7 1.3 1.5 1.5 2.5m0 4h6m-5 4h4"/></symbol>
  <symbol id="lucide.list-plus" viewBox="0 0 24 24" fill="none" stroke="currentColor" stroke-linecap="round" stroke-linejoin="round" stroke-width="2"><path d="M16 5H3m8 7H3m13 7H3M18 9v6m3-3h-6"/></symbol>
  <symbol id="lucide.log-out" viewBox="0 0 24 24" fill="none" stroke="currentColor" stroke-linecap="round" stroke-linejoin="round" stroke-width="2"><path d="m16 17 5-5-5-5m5 5H9m0 9H5a2 2 0 0 1-2-2V5a2 2 0 0 1 2-2h4"/></symbol>
  <symbol id="lucide.mail" viewBox="0 0 24 24" fill="none" stroke="currentColor" stroke-linecap="round" stroke-linejoin="round" stroke-width="2"><path d="m22 7-8.991 5.727a2 2 0 0 1-2.009 0L2 7"/><rect width="20" height="16" x="2" y="4" rx="2"/></symbol>
  <symbol id="lucide.minus" viewBox="0 0 24 24" fill="none" stroke="currentColor" stroke-linecap="round" stroke-linejoin="round" stroke-width="2"><path d="M5 12h14"/></symbol>
  <symbol id="lucide.pencil" viewBox="0 0 24 24" fill="none" stroke="currentColor" stroke-linecap="round" stroke-linejoin="round" stroke-width="2"><path d="M21.174 6.812a1 1 0 0 0-3.986-3.987L3.842 16.174a2 2 0 0 0-.5.83l-1.321 4.352a.5.5 0 0 0 .623.622l4.353-1.32a2 2 0 0 0 .83-.497zM15 5l4 4"/></symbol>
  <symbol id="lucide.pin" viewBox="0 0 24 24" fill="none" stroke="currentColor" stroke-linecap="round" stroke-linejoin="round" stroke-width="2"><path d="M12 17v5M9 10.76a2 2 0 0 1-1.11 1.79l-1.78.9A2 2 0 0 0 5 15.24V16a1 1 0 0 0 1 1h12a1 1 0 0 0 1-1v-.76a2 2 0 0 0-1.11-1.79l-1.78-.9A2 2 0 0 1 15 10.76V7a1 1 0 0 1 1-1 2 2 0 0 0 0-4H8a2 2 0 0 0 0 4 1 1 0 0 1 1 1z"/></symbol>
  <symbol id="lucide.pin-off" viewBox="0 0 24 24" fill="none" stroke="currentColor" stroke-linecap="round" stroke-linejoin="round" stroke-width="2"><path d="M12 17v5m3-12.66V7a1 1 0 0 1 1-1 2 2 0 0 0 0-4H7.89M2 2l20 20M9 9v1.76a2 2 0 0 1-1.11 1.79l-1.78.9A2 2 0 0 0 5 15.24V16a1 1 0 0 0 1 1h11"/></symbol>
  <symbol id="lucide.plus" viewBox="0 0 24 24" fill="none" stroke="currentColor" stroke-linecap="round" stroke-linejoin="round" stroke-width="2"><path d="M5 12h14m-7-7v14"/></symbol>
  <symbol id="lucide.refresh-cw" viewBox="0 0 24 24" fill="none" stroke="currentColor" stroke-linecap="round" stroke-linejoin="round" stroke-width="2"><path d="M3 12a9 9 0 0 1 9-9 9.75 9.75 0 0 1 6.74 2.74L21 8"/><path d="M21 3v5h-5m5 4a9 9 0 0 1-9 9 9.75 9.75 0 0 1-6.74-2.74L3 16"/><path d="M8 16H3v5"/></symbol>
  <symbol id="lucide.scale" viewBox="0 0 24 24" fill="none" stroke="currentColor" stroke-linecap="round" stroke-linejoin="round" stroke-width="2"><path d="M12 3v18m7-13 3 8a5 5 0 0 1-6 0zV7"/><path d="M3 7h1a17 17 0 0 0 8-2 17 17 0 0 0 8 2h1M5 8l3 8a5 5 0 0 1-6 0zV7m2 14h10"/></symbol>
  <symbol id="lucide.scan-qr-code" viewBox="0 0 24 24" fill="none" stroke="currentColor" stroke-linecap="round" stroke-linejoin="round" stroke-width="2"><path d="M17 12v4a1 1 0 0 1-1 1h-4m5-14h2a2 2 0 0 1 2 2v2m-4 1V7m4 10v2a2 2 0 0 1-2 2h-2M3 7V5a2 2 0 0 1 2-2h2m0 14h.01M7 21H5a2 2 0 0 1-2-2v-2"/><rect width="5" height="5" x="7" y="7" rx="1"/></symbol>
  <symbol id="lucide.scroll-text" viewBox="0 0 24 24" fill="none" stroke="currentColor" stroke-linecap="round" stroke-linejoin="round" stroke-width="2"><path d="M15 12h-5m5-4h-5m9 9V5a2 2 0 0 0-2-2H4"/><path d="M8 21h12a2 2 0 0 0 2-2v-1a1 1 0 0 0-1-1H11a1 1 0 0 0-1 1v1a2 2 0 1 1-4 0V5a2 2 0 1 0-4 0v2a1 1 0 0 0 1 1h3"/></symbol>
  <symbol id="lucide.search" viewBox="0 0 24 24" fill="none" stroke="currentColor" stroke-linecap="round" stroke-linejoin="round" stroke-width="2"><path d="m21 21-4.34-4.34"/><circle cx="11" cy="11" r="8"/></symbol>
  <symbol id="lucide.settings" viewBox="0 0 24 24" fill="none" stroke="currentColor" stroke-linecap="round" stroke-linejoin="round" stroke-width="2"><path d="M9.671 4.136a2.34 2.34 0 0 1 4.659 0 2.34 2.34 0 0 0 3.319 1.915 2.34 2.34 0 0 1 2.33 4.033 2.34 2.34 0 0 0 0 3.831 2.34 2.34 0 0 1-2.33 4.033 2.34 2.34 0 0 0-3.319 1.915 2.34 2.34 0 0 1-4.659 0 2.34 2.34 0 0 0-3.32-1.915 2.34 2.34 0 0 1-2.33-4.033 2.34 2.34 0 0 0 0-3.831A2.34 2.34 0 0 1 6.35 6.051a2.34 2.34 0 0 0 3.319-1.915"/><circle cx="12" cy="12" r="3"/></symbol>
  <symbol id="lucide.share" viewBox="0 0 24 24" fill="none" stroke="currentColor" stroke-linecap="round" stroke-linejoin="round" stroke-width="2"><path d="M12 2v13m4-9-4-4-4 4m-4 6v8a2 2 0 0 0 2 2h12a2 2 0 0 0 2-2v-8"/></symbol>
  <symbol id="lucide.shield" viewBox="0 0 24 24" fill="none" stroke="currentColor" stroke-linecap="round" stroke-linejoin="round" stroke-width="2"><path d="M20 13c0 5-3.5 7.5-7.66 8.95a1 1 0 0 1-.67-.01C7.5 20.5 4 18 4 13V6a1 1 0 0 1 1-1c2 0 4.5-1.2 6.24-2.72a1.17 1.17 0 0 1 1.52 0C14.51 3.81 17 5 19 5a1 1 0 0 1 1 1z"/></symbol>
  <symbol id="lucide.split" viewBox="0 0 24 24" fill="none" stroke="currentColor" stroke-linecap="round" stroke-linejoin="round" stroke-width="2"><path d="M16 3h5v5M8 3H3v5"/><path d="M12 22v-8.3a4 4 0 0 0-1.172-2.872L3 3m12 6 6-6"/></symbol>
  <symbol id="lucide.test-tube-diagonal" viewBox="0 0 24 24" fill="none" stroke="currentColor" stroke-linecap="round" stroke-linejoin="round" stroke-width="2"><path d="M21 7 6.82 21.18a2.83 2.83 0 0 1-3.99-.01 2.83 2.83 0 0 1 0-4L17 3m-1-1 6 6m-10 8H4"/></symbol>
  <symbol id="lucide.trash" viewBox="0 0 24 24" fill="none" stroke="currentColor" stroke-linecap="round" stroke-linejoin="round" stroke-width="2"><path d="M19 6v14a2 2 0 0 1-2 2H7a2 2 0 0 1-2-2V6M3 6h18M8 6V4a2 2 0 0 1 2-2h4a2 2 0 0 1 2 2v2"/></symbol>
  <symbol id="lucide.trophy" viewBox="0 0 24 24" fill="none" stroke="currentColor" stroke-linecap="round" stroke-linejoin="round" stroke-width="2"><path d="M10 14.66v1.626a2 2 0 0 1-.976 1.696A5 5 0 0 0 7 21.978m7-7.318v1.626a2 2 0 0 0 .976 1.696A5 5 0 0 1 17 21.978M18 9h1.5a1 1 0 0 0 0-5H18M4 22h16"/><path d="M6 9a6 6 0 0 0 12 0V3a1 1 0 0 0-1-1H7a1 1 0 0 0-1 1zm0 0H4.5a1 1 0 0 1 0-5H6"/></symbol>
  <symbol id="lucide.user" viewBox="0 0 24 24" fill="none" stroke="currentColor" stroke-linecap="round" stroke-linejoin="round" stroke-width="2"><path d="M19 21v-2a4 4 0 0 0-4-4H9a4 4 0 0 0-4 4v2"/><circle cx="12" cy="7" r="4"/></symbol>
  <symbol id="lucide.user-round-check" viewBox="0 0 24 24" fill="none" stroke="currentColor" stroke-linecap="round" stroke-linejoin="round" stroke-width="2"><path d="M2 21a8 8 0 0 1 13.292-6"/><circle cx="10" cy="8" r="5"/><path d="m16 19 2 2 4-4"/></symbol>
  <symbol id="lucide.user-round-pen" viewBox="0 0 24 24" fill="none" stroke="currentColor" stroke-linecap="round" stroke-linejoin="round" stroke-width="2"><path d="M2 21a8 8 0 0 1 10.821-7.487m8.557 3.113a1 1 0 0 0-3.004-3.004l-4.01 4.012a2 2 0 0 0-.506.854l-.837 2.87a.5.5 0 0 0 .62.62l2.87-.837a2 2 0 0 0 .854-.506z"/><circle cx="10" cy="8" r="5"/></symbol>
  <symbol id="lucide.users" viewBox="0 0 24 24" fill="none" stroke="currentColor" stroke-linecap="round" stroke-linejoin="round" stroke-width="2"><path d="M16 21v-2a4 4 0 0 0-4-4H6a4 4 0 0 0-4 4v2M16 3.128a4 4 0 0 1 0 7.744M22 21v-2a4 4 0 0 0-3-3.87"/><circle cx="9" cy="7" r="4"/></symbol>
  <symbol id="lucide.wifi-off" viewBox="0 0 24 24" fill="none" stroke="currentColor" stroke-linecap="round" stroke-linejoin="round" stroke-width="2"><path d="M12 20h.01M8.5 16.429a5 5 0 0 1 7 0M5 12.859a10 10 0 0 1 5.17-2.69m8.83 2.69a10 10 0 0 0-2.007-1.523M2 8.82a15 15 0 0 1 4.177-2.643M22 8.82a15 15 0 0 0-11.288-3.764M2 2l20 20"/></symbol>
  <symbol id="lucide.x" viewBox="0 0 24 24" fill="none" stroke="currentColor" stroke-linecap="round" stroke-linejoin="round" stroke-width="2"><path d="M18 6 6 18M6 6l12 12"/></symbol>
</svg>
